<svg xmlns="http://www.w3.org/2000/svg" viewBox="0 0 800 280" width="100%" height="100%">
  <defs>
    <!-- Background Gradient -->
    <linearGradient id="bgGrad" x1="0%" y1="0%" x2="100%" y2="100%">
      <stop offset="0%" stop-color="#090d16" />
      <stop offset="50%" stop-color="#0f172a" />
      <stop offset="100%" stop-color="#090d16" />
    </linearGradient>

    <!-- Glowing Node Gradients -->
    <radialGradient id="indigoGlow" cx="50%" cy="50%" r="50%">
      <stop offset="0%" stop-color="#6366F1" stop-opacity="0.5" />
      <stop offset="100%" stop-color="#6366F1" stop-opacity="0" />
    </radialGradient>
    <radialGradient id="purpleGlow" cx="50%" cy="50%" r="50%">
      <stop offset="0%" stop-color="#a855f7" stop-opacity="0.5" />
      <stop offset="100%" stop-color="#a855f7" stop-opacity="0" />
    </radialGradient>
    <radialGradient id="tealGlow" cx="50%" cy="50%" r="50%">
      <stop offset="0%" stop-color="#14b8a6" stop-opacity="0.5" />
      <stop offset="100%" stop-color="#14b8a6" stop-opacity="0" />
    </radialGradient>
    <radialGradient id="roseGlow" cx="50%" cy="50%" r="50%">
      <stop offset="0%" stop-color="#f43f5e" stop-opacity="0.5" />
      <stop offset="100%" stop-color="#f43f5e" stop-opacity="0" />
    </radialGradient>

    <!-- Node Border Gradients -->
    <linearGradient id="borderGrad" x1="0%" y1="0%" x2="100%" y2="100%">
      <stop offset="0%" stop-color="#818cf8" stop-opacity="0.8" />
      <stop offset="100%" stop-color="#312e81" stop-opacity="0.2" />
    </linearGradient>
  </defs>

  <style>
    /* CSS Animations */
    .glow-circle {
      animation: pulseGlow 3s infinite ease-in-out;
    }
    .flow-line {
      stroke-dasharray: 8, 8;
      animation: dash 35s linear infinite;
    }
    .signal {
      animation: travel 4s infinite linear;
    }

    @keyframes dash {
      to {
        stroke-dashoffset: -1000;
      }
    }
    @keyframes pulseGlow {
      0%, 100% { opacity: 0.3; }
      50% { opacity: 0.95; }
    }
    @keyframes travel {
      0% { offset-distance: 0%; opacity: 0; }
      10% { opacity: 1; }
      90% { opacity: 1; }
      100% { offset-distance: 100%; opacity: 0; }
    }

    /* Node-specific positions for paths (used for signals) */
    .signal-router-rag {
      offset-path: path('M 182,140 L 420,70');
    }
    .signal-router-sql {
      offset-path: path('M 182,140 L 420,210');
    }
    .signal-rag-merge {
      offset-path: path('M 420,70 L 638,140');
    }
    .signal-sql-merge {
      offset-path: path('M 420,210 L 638,140');
    }
    .signal-input-router {
      offset-path: path('M 45,140 L 182,140');
    }
    .signal-merge-output {
      offset-path: path('M 638,140 L 755,140');
    }

    /* Typography */
    .node-text {
      font-family: 'Inter', system-ui, -apple-system, sans-serif;
      font-size: 10px;
      font-weight: bold;
      fill: #f1f5f9;
      text-anchor: middle;
    }
    .sub-text {
      font-family: 'Inter', system-ui, -apple-system, sans-serif;
      font-size: 8px;
      fill: #94a3b8;
      text-anchor: middle;
    }
  </style>

  <!-- Background Canvas -->
  <rect width="800" height="280" rx="16" fill="url(#bgGrad)" stroke="#1e293b" stroke-width="1.5" />

  <!-- Grid Pattern Overlay -->
  <g opacity="0.05">
    <path d="M 0,20 L 800,20 M 0,40 L 800,40 M 0,60 L 800,60 M 0,80 L 800,80 M 0,100 L 800,100 M 0,120 L 800,120 M 0,140 L 800,140 M 0,160 L 800,160 M 0,180 L 800,180 M 0,200 L 800,200 M 0,220 L 800,220 M 0,240 L 800,240 M 0,260 L 800,260" stroke="#cccccc" stroke-width="1" />
    <path d="M 20,0 L 20,280 M 40,0 L 40,280 M 60,0 L 60,280 M 80,0 L 80,280 M 100,0 L 100,280 M 120,0 L 120,280 M 140,0 L 140,280 M 160,0 L 160,280 M 180,0 L 180,280 M 200,0 L 200,280 M 220,0 L 220,280 M 240,0 L 240,280 M 260,0 L 260,280 M 280,0 L 280,280 M 300,0 L 300,280 M 320,0 L 320,280 M 340,0 L 340,280 M 360,0 L 360,280 M 380,0 L 380,280 M 400,0 L 400,280 M 420,0 L 420,280 M 440,0 L 440,280 M 460,0 L 460,280 M 480,0 L 480,280 M 500,0 L 500,280 M 520,0 L 520,280 M 540,0 L 540,280 M 560,0 L 560,280 M 580,0 L 580,280 M 600,0 L 600,280 M 620,0 L 620,280 M 640,0 L 640,280 M 660,0 L 660,280 M 680,0 L 680,280 M 700,0 L 700,280 M 720,0 L 720,280 M 740,0 L 740,280 M 760,0 L 760,280 M 780,0 L 780,280" stroke="#cccccc" stroke-width="1" />
  </g>

  <!-- Connection Lines (Dashed Paths) -->
  <g fill="none" stroke-width="2">
    <!-- Input to Router -->
    <path d="M 45,140 L 182,140" stroke="#6366F1" opacity="0.3" />
    <path d="M 45,140 L 182,140" stroke="#6366F1" class="flow-line" opacity="0.7" />

    <!-- Router to RAG (Top) -->
    <path d="M 182,140 L 420,70" stroke="#a855f7" opacity="0.3" />
    <path d="M 182,140 L 420,70" stroke="#a855f7" class="flow-line" opacity="0.7" />

    <!-- Router to SQL (Bottom) -->
    <path d="M 182,140 L 420,210" stroke="#14b8a6" opacity="0.3" />
    <path d="M 182,140 L 420,210" stroke="#14b8a6" class="flow-line" opacity="0.7" />

    <!-- RAG to Merge -->
    <path d="M 420,70 L 638,140" stroke="#a855f7" opacity="0.3" />
    <path d="M 420,70 L 638,140" stroke="#a855f7" class="flow-line" opacity="0.7" />

    <!-- SQL to Merge -->
    <path d="M 420,210 L 638,140" stroke="#14b8a6" opacity="0.3" />
    <path d="M 420,210 L 638,140" stroke="#14b8a6" class="flow-line" opacity="0.7" />

    <!-- Merge to Output -->
    <path d="M 638,140 L 755,140" stroke="#f43f5e" opacity="0.3" />
    <path d="M 638,140 L 755,140" stroke="#f43f5e" class="flow-line" opacity="0.7" />
  </g>

  <!-- Glowing Signals (Animated Nodes traveling paths) -->
  <circle r="4" fill="#818cf8" class="signal signal-input-router" filter="drop-shadow(0 0 6px #6366F1)" />
  <circle r="4" fill="#c084fc" class="signal signal-router-rag" style="animation-delay: 1s;" filter="drop-shadow(0 0 6px #a855f7)" />
  <circle r="4" fill="#2dd4bf" class="signal signal-router-sql" style="animation-delay: 1s;" filter="drop-shadow(0 0 6px #14b8a6)" />
  <circle r="4" fill="#c084fc" class="signal signal-rag-merge" style="animation-delay: 2.2s;" filter="drop-shadow(0 0 6px #a855f7)" />
  <circle r="4" fill="#2dd4bf" class="signal signal-sql-merge" style="animation-delay: 2.2s;" filter="drop-shadow(0 0 6px #14b8a6)" />
  <circle r="4" fill="#fda4af" class="signal signal-merge-output" style="animation-delay: 3.1s;" filter="drop-shadow(0 0 6px #f43f5e)" />

  <!-- Node Circles & Text groups -->

  <!-- NODE 0: Query Source -->
  <g transform="translate(45, 140)">
    <circle r="36" fill="url(#indigoGlow)" class="glow-circle" />
    <circle r="20" fill="#0f172a" stroke="url(#borderGrad)" stroke-width="1.5" />
    <text y="-2" class="node-text">INPUT</text>
    <text y="8" class="sub-text">User Query</text>
  </g>

  <!-- NODE 1: Router Node -->
  <g transform="translate(182, 140)">
    <circle r="46" fill="url(#indigoGlow)" class="glow-circle" />
    <circle r="28" fill="#0f172a" stroke="#6366F1" stroke-width="2" />
    <text y="-2" class="node-text">ROUTER</text>
    <text y="8" class="sub-text">Classifier</text>
  </g>

  <!-- NODE 2: RAG Retrieval Node (Top) -->
  <g transform="translate(420, 70)">
    <circle r="50" fill="url(#purpleGlow)" class="glow-circle" />
    <circle r="32" fill="#0f172a" stroke="#a855f7" stroke-width="2" />
    <text y="-3" class="node-text">RAG ENGINE</text>
    <text y="7" class="sub-text">Vector Store</text>
    <text y="15" class="sub-text">+ BM25 Rerank</text>
  </g>

  <!-- NODE 3: SQL Execution Node (Bottom) -->
  <g transform="translate(420, 210)">
    <circle r="50" fill="url(#tealGlow)" class="glow-circle" />
    <circle r="32" fill="#0f172a" stroke="#14b8a6" stroke-width="2" />
    <text y="-3" class="node-text">SQL ENGINE</text>
    <text y="7" class="sub-text">NL-to-SQL</text>
    <text y="15" class="sub-text">Self-Correction</text>
  </g>

  <!-- NODE 4: Merge Synthesizer Node -->
  <g transform="translate(638, 140)">
    <circle r="46" fill="url(#roseGlow)" class="glow-circle" />
    <circle r="28" fill="#0f172a" stroke="#f43f5e" stroke-width="2" />
    <text y="-3" class="node-text">MERGE</text>
    <text y="7" class="sub-text">LLM Answer</text>
    <text y="15" class="sub-text">Synthesis</text>
  </g>

  <!-- NODE 5: Final Output Destination -->
  <g transform="translate(755, 140)">
    <circle r="36" fill="url(#roseGlow)" class="glow-circle" />
    <circle r="20" fill="#0f172a" stroke="url(#borderGrad)" stroke-width="1.5" />
    <text y="-2" class="node-text">OUTPUT</text>
    <text y="8" class="sub-text">Result + Chart</text>
  </g>
</svg>
