<svg width="32" height="32" viewBox="0 0 40 40" fill="none" xmlns="http://www.w3.org/2000/svg">
  <defs>
    <linearGradient id="paladinShieldGrad" x1="0" y1="0" x2="40" y2="40" gradientUnits="userSpaceOnUse">
      <stop offset="0%" stop-color="#8b5cf6" />
      <stop offset="50%" stop-color="#6d28d9" />
      <stop offset="100%" stop-color="#0f172a" />
    </linearGradient>
    <linearGradient id="paladinGoldGrad" x1="10" y1="10" x2="30" y2="30" gradientUnits="userSpaceOnUse">
      <stop offset="0%" stop-color="#fbbf24" />
      <stop offset="50%" stop-color="#f59e0b" />
      <stop offset="100%" stop-color="#d97706" />
    </linearGradient>
    <linearGradient id="paladinBorderGrad" x1="0" y1="0" x2="40" y2="40" gradientUnits="userSpaceOnUse">
      <stop offset="0%" stop-color="#a78bfa" />
      <stop offset="50%" stop-color="#fbbf24" />
      <stop offset="100%" stop-color="#7c3aed" />
    </linearGradient>
  </defs>
  <path d="M20 3L34 8V18C34 27.5 28 34.5 20 37C12 34.5 6 27.5 6 18V8L20 3Z" fill="url(#paladinShieldGrad)" stroke="url(#paladinBorderGrad)" stroke-width="1.5" stroke-linejoin="round" />
  <path d="M20 7L30 11V18C30 24.5 25.5 30.5 20 32.5C14.5 30.5 10 24.5 10 18V11L20 7Z" fill="#080710" fill-opacity="0.65" stroke="#8b5cf6" stroke-width="1" stroke-dasharray="2 2" />
  <path d="M20 12L22.2 17.8L28 20L22.2 22.2L20 28L17.8 22.2L12 20L17.8 17.8L20 12Z" fill="url(#paladinGoldGrad)" />
  <circle cx="20" cy="20" r="1.5" fill="#ffffff" />
</svg>